<?xml version="1.0" encoding="utf-8"?>
<svg xmlns="http://www.w3.org/2000/svg" viewBox="121.676 0 512 512">
  <rect x="121.676" width="512" height="512" style="stroke: rgb(0, 0, 0); stroke-width: 0px; fill: rgb(255, 255, 255);"/>
  <path d="M 267.141 325.044 L 280.958 325.044 L 280.958 328.412 L 267.141 328.412 L 267.141 325.044 Z M 315.5 325.044 L 322.408 325.044 L 322.408 328.412 L 315.5 328.412 L 315.5 325.044 Z M 432.943 325.044 L 446.76 325.044 L 446.76 328.412 L 432.943 328.412 L 432.943 325.044 Z M 405.31 254.316 L 398.401 254.316 L 398.401 277.892 L 391.493 277.892 L 391.493 287.996 L 384.584 287.996 L 384.584 294.732 L 377.676 294.732 L 377.676 321.676 L 384.584 321.676 L 384.584 328.412 L 370.768 328.412 L 370.768 308.204 L 363.859 308.204 L 363.859 301.468 L 356.951 301.468 L 356.951 308.204 L 350.042 308.204 L 350.042 314.94 L 343.134 314.94 L 343.134 321.676 L 350.042 321.676 L 350.042 328.412 L 336.225 328.412 L 336.225 301.468 L 329.317 301.468 L 329.317 294.732 L 322.408 294.732 L 322.408 287.996 L 315.5 287.996 L 315.5 281.26 L 308.592 281.26 L 308.592 274.524 L 301.683 274.524 L 301.683 234.108 L 308.592 234.108 L 308.592 247.58 L 315.5 247.58 L 315.5 254.316 L 322.408 254.316 L 322.408 261.052 L 336.225 261.052 L 336.225 254.316 L 343.134 254.316 L 343.134 247.58 L 353.496 247.58 L 353.496 240.844 L 363.859 240.844 L 363.859 234.108 L 370.768 234.108 L 370.768 190.324 L 377.676 190.324 L 377.676 183.588 L 432.943 183.588 L 432.943 190.324 L 439.852 190.324 L 439.852 220.636 L 405.31 220.636 L 405.31 227.372 L 426.035 227.372 L 426.035 234.108 L 398.401 234.108 L 398.401 247.58 L 412.218 247.58 L 412.218 261.052 L 405.31 261.052 L 405.31 254.316 Z M 408.764 321.676 L 412.218 321.676 L 412.218 325.044 L 408.764 325.044 L 408.764 321.676 Z M 287.866 314.94 L 301.683 314.94 L 301.683 318.308 L 287.866 318.308 L 287.866 314.94 Z M 457.123 311.572 L 467.486 311.572 L 467.486 314.94 L 457.123 314.94 L 457.123 311.572 Z M 267.141 301.468 L 322.408 301.468 L 322.408 304.836 L 267.141 304.836 L 267.141 301.468 Z M 391.493 301.468 L 488.211 301.468 L 488.211 304.836 L 391.493 304.836 L 391.493 301.468 Z M 384.584 193.692 L 384.584 200.428 L 391.493 200.428 L 391.493 193.692 L 384.584 193.692 Z" stroke="none" style="fill: rgb(23, 25, 26);"/>
</svg>