<?xml version="1.0" encoding="utf-8"?>
<svg xmlns="http://www.w3.org/2000/svg" viewBox="121.676 0 256 256">
  <rect x="121.676" width="256" height="256" style="stroke: rgb(0, 0, 0); stroke-width: 0px; fill: rgb(255, 255, 255);" id="object-0"></rect>
  <path d="M 139.141 197.044 L 152.958 197.044 L 152.958 200.412 L 139.141 200.412 L 139.141 197.044 Z M 187.5 197.044 L 194.408 197.044 L 194.408 200.412 L 187.5 200.412 L 187.5 197.044 Z M 304.943 197.044 L 318.76 197.044 L 318.76 200.412 L 304.943 200.412 L 304.943 197.044 Z M 277.31 126.316 L 270.401 126.316 L 270.401 149.892 L 263.493 149.892 L 263.493 159.996 L 256.584 159.996 L 256.584 166.732 L 249.676 166.732 L 249.676 193.676 L 256.584 193.676 L 256.584 200.412 L 242.768 200.412 L 242.768 180.204 L 235.859 180.204 L 235.859 173.468 L 228.951 173.468 L 228.951 180.204 L 222.042 180.204 L 222.042 186.94 L 215.134 186.94 L 215.134 193.676 L 222.042 193.676 L 222.042 200.412 L 208.225 200.412 L 208.225 173.468 L 201.317 173.468 L 201.317 166.732 L 194.408 166.732 L 194.408 159.996 L 187.5 159.996 L 187.5 153.26 L 180.592 153.26 L 180.592 146.524 L 173.683 146.524 L 173.683 106.108 L 180.592 106.108 L 180.592 119.58 L 187.5 119.58 L 187.5 126.316 L 194.408 126.316 L 194.408 133.052 L 208.225 133.052 L 208.225 126.316 L 215.134 126.316 L 215.134 119.58 L 225.496 119.58 L 225.496 112.844 L 235.859 112.844 L 235.859 106.108 L 242.768 106.108 L 242.768 62.324 L 249.676 62.324 L 249.676 55.588 L 304.943 55.588 L 304.943 62.324 L 311.852 62.324 L 311.852 92.636 L 277.31 92.636 L 277.31 99.372 L 298.035 99.372 L 298.035 106.108 L 270.401 106.108 L 270.401 119.58 L 284.218 119.58 L 284.218 133.052 L 277.31 133.052 L 277.31 126.316 Z M 280.764 193.676 L 284.218 193.676 L 284.218 197.044 L 280.764 197.044 L 280.764 193.676 Z M 159.866 186.94 L 173.683 186.94 L 173.683 190.308 L 159.866 190.308 L 159.866 186.94 Z M 329.123 183.572 L 339.486 183.572 L 339.486 186.94 L 329.123 186.94 L 329.123 183.572 Z M 139.141 173.468 L 194.408 173.468 L 194.408 176.836 L 139.141 176.836 L 139.141 173.468 Z M 263.493 173.468 L 360.211 173.468 L 360.211 176.836 L 263.493 176.836 L 263.493 173.468 Z M 256.584 65.692 L 256.584 72.428 L 263.493 72.428 L 263.493 65.692 L 256.584 65.692 Z" stroke="none" style="fill: rgb(23, 25, 26);"></path>

</svg>
