<?xml version="1.0" encoding="utf-8"?>
<svg xmlns="http://www.w3.org/2000/svg" viewBox="0 0 500 500">
  <path d="M 0 109.375 C 165 109.375 330 109.375 500 109.375 C 500 202.188 500 295 500 390.625 C 335 390.625 170 390.625 0 390.625 C 0 297.813 0 205 0 109.375 Z" fill="#FFFFFF"/>
  <rect width="500" height="500" style="fill: rgb(255, 255, 255); stroke: rgb(255, 255, 255);"/>
  <path d="M 206.937 148.438 C 212.093 148.438 217.25 148.438 222.562 148.438 C 222.562 153.594 222.562 158.751 222.562 164.063 C 227.718 164.063 232.875 164.063 238.187 164.063 C 238.187 169.219 238.187 174.376 238.187 179.688 C 243.343 179.688 248.5 179.688 253.812 179.688 C 253.812 184.844 253.812 190.001 253.812 195.313 C 258.968 195.313 264.125 195.313 269.437 195.313 C 269.437 200.469 269.437 205.626 269.437 210.938 C 274.593 210.938 279.75 210.938 285.062 210.938 C 285.062 216.094 285.062 221.251 285.062 226.563 C 290.218 226.563 295.375 226.563 300.687 226.563 C 300.687 231.719 300.687 236.876 300.687 242.188 C 305.843 242.188 311 242.188 316.312 242.188 C 316.312 252.501 316.312 262.813 316.312 273.438 C 321.468 273.438 326.625 273.438 331.937 273.438 C 331.937 278.594 331.937 283.751 331.937 289.063 C 357.718 289.063 383.5 289.063 410.062 289.063 C 410.062 294.219 410.062 299.376 410.062 304.688 C 394.593 304.688 379.125 304.688 363.187 304.688 C 363.187 309.844 363.187 315.001 363.187 320.313 C 373.5 320.313 383.812 320.313 394.437 320.313 C 394.437 325.469 394.437 330.626 394.437 335.938 C 384.125 335.938 373.812 335.938 363.187 335.938 C 363.187 341.094 363.187 346.251 363.187 351.563 C 327.093 351.563 291 351.563 253.812 351.563 C 253.812 346.407 253.812 341.251 253.812 335.938 C 248.656 335.938 243.5 335.938 238.187 335.938 C 238.187 330.782 238.187 325.626 238.187 320.313 C 233.031 320.313 227.875 320.313 222.562 320.313 C 222.562 315.157 222.562 310.001 222.562 304.688 C 217.406 304.688 212.25 304.688 206.937 304.688 C 206.937 299.532 206.937 294.376 206.937 289.063 C 201.781 289.063 196.625 289.063 191.312 289.063 C 191.312 283.907 191.312 278.751 191.312 273.438 C 155.218 273.438 119.125 273.438 81.937 273.438 C 81.937 268.282 81.937 263.126 81.937 257.813 C 87.093 257.813 92.25 257.813 97.562 257.813 C 97.562 252.657 97.562 247.501 97.562 242.188 C 102.718 242.188 107.875 242.188 113.187 242.188 C 113.187 237.032 113.187 231.876 113.187 226.563 C 118.343 226.563 123.5 226.563 128.812 226.563 C 128.812 221.407 128.812 216.251 128.812 210.938 C 133.968 210.938 139.125 210.938 144.437 210.938 C 144.437 205.782 144.437 200.626 144.437 195.313 C 149.593 195.313 154.75 195.313 160.062 195.313 C 160.062 190.157 160.062 185.001 160.062 179.688 C 170.375 179.688 180.687 179.688 191.312 179.688 C 191.312 190.001 191.312 200.313 191.312 210.938 C 196.468 210.938 201.625 210.938 206.937 210.938 C 206.937 221.251 206.937 231.563 206.937 242.188 C 212.093 242.188 217.25 242.188 222.562 242.188 C 222.562 226.719 222.562 211.251 222.562 195.313 C 217.406 195.313 212.25 195.313 206.937 195.313 C 206.937 179.844 206.937 164.376 206.937 148.438 Z" fill="#17191A"/>
  <path d="M 144.437 226.563 C 149.593 226.563 154.75 226.563 160.062 226.563 C 160.062 231.719 160.062 236.876 160.062 242.188 C 154.906 242.188 149.75 242.188 144.437 242.188 C 144.437 237.032 144.437 231.876 144.437 226.563 Z" fill="#FFFFFF"/>
</svg>