<?xml version="1.0" encoding="utf-8"?>
<svg xmlns="http://www.w3.org/2000/svg" viewBox="0 0 500 500">
  <path d="M 0 109.375 C 165 109.375 330 109.375 500 109.375 C 500 202.188 500 295 500 390.625 C 335 390.625 170 390.625 0 390.625 C 0 297.813 0 205 0 109.375 Z" fill="#FFFFFF"/>
  <path d="M 171.875 171.875 C 177.031 171.875 182.188 171.875 187.5 171.875 C 187.5 177.031 187.5 182.188 187.5 187.5 C 192.656 187.5 197.813 187.5 203.125 187.5 C 203.125 192.656 203.125 197.813 203.125 203.125 C 208.281 203.125 213.438 203.125 218.75 203.125 C 218.75 208.281 218.75 213.438 218.75 218.75 C 223.906 218.75 229.063 218.75 234.375 218.75 C 234.375 223.906 234.375 229.063 234.375 234.375 C 239.531 234.375 244.688 234.375 250 234.375 C 250 239.531 250 244.688 250 250 C 255.156 250 260.313 250 265.625 250 C 265.625 255.156 265.625 260.313 265.625 265.625 C 270.781 265.625 275.938 265.625 281.25 265.625 C 281.25 275.938 281.25 286.25 281.25 296.875 C 286.406 296.875 291.563 296.875 296.875 296.875 C 296.875 302.031 296.875 307.188 296.875 312.5 C 322.656 312.5 348.438 312.5 375 312.5 C 375 317.656 375 322.813 375 328.125 C 359.531 328.125 344.063 328.125 328.125 328.125 C 328.125 333.281 328.125 338.438 328.125 343.75 C 338.438 343.75 348.75 343.75 359.375 343.75 C 359.375 348.906 359.375 354.063 359.375 359.375 C 349.063 359.375 338.75 359.375 328.125 359.375 C 328.125 364.531 328.125 369.688 328.125 375 C 292.031 375 255.938 375 218.75 375 C 218.75 369.844 218.75 364.688 218.75 359.375 C 213.594 359.375 208.438 359.375 203.125 359.375 C 203.125 354.219 203.125 349.063 203.125 343.75 C 197.969 343.75 192.813 343.75 187.5 343.75 C 187.5 338.594 187.5 333.438 187.5 328.125 C 182.344 328.125 177.188 328.125 171.875 328.125 C 171.875 322.969 171.875 317.813 171.875 312.5 C 166.719 312.5 161.563 312.5 156.25 312.5 C 156.25 307.344 156.25 302.188 156.25 296.875 C 120.156 296.875 84.063 296.875 46.875 296.875 C 46.875 291.719 46.875 286.563 46.875 281.25 C 52.031 281.25 57.188 281.25 62.5 281.25 C 62.5 276.094 62.5 270.938 62.5 265.625 C 67.656 265.625 72.813 265.625 78.125 265.625 C 78.125 260.469 78.125 255.313 78.125 250 C 83.281 250 88.438 250 93.75 250 C 93.75 244.844 93.75 239.688 93.75 234.375 C 98.906 234.375 104.063 234.375 109.375 234.375 C 109.375 229.219 109.375 224.063 109.375 218.75 C 114.531 218.75 119.688 218.75 125 218.75 C 125 213.594 125 208.438 125 203.125 C 135.313 203.125 145.625 203.125 156.25 203.125 C 156.25 213.438 156.25 223.75 156.25 234.375 C 161.406 234.375 166.563 234.375 171.875 234.375 C 171.875 244.688 171.875 255 171.875 265.625 C 177.031 265.625 182.188 265.625 187.5 265.625 C 187.5 250.156 187.5 234.688 187.5 218.75 C 182.344 218.75 177.188 218.75 171.875 218.75 C 171.875 203.281 171.875 187.813 171.875 171.875 Z" fill="#17191A"/>
  <path d="M 109.375 250 C 114.531 250 119.688 250 125 250 C 125 255.156 125 260.313 125 265.625 C 119.844 265.625 114.688 265.625 109.375 265.625 C 109.375 260.469 109.375 255.313 109.375 250 Z" fill="#FFFFFF"/>
</svg>